<svg xmlns="http://www.w3.org/2000/svg" version="1.1" xmlns:xlink="http://www.w3.org/1999/xlink" xmlns:svgjs="http://svgjs.dev/svgjs" width="2000" height="368" viewBox="0 0 2000 368"><g transform="matrix(1,0,0,1,-1.2121212121212466,-0.06696976103967245)"><svg viewBox="0 0 396 73" data-background-color="#ffffff" preserveAspectRatio="xMidYMid meet" height="368" width="2000" xmlns="http://www.w3.org/2000/svg" xmlns:xlink="http://www.w3.org/1999/xlink"><g id="tight-bounds" transform="matrix(1,0,0,1,0.2400000000000091,0.013284762380152415)"><svg viewBox="0 0 395.52 72.97343047523971" height="72.97343047523971" width="395.52"><g><svg viewBox="0 0 530.1252724459221 97.80810000000001" height="72.97343047523971" width="395.52"><g><svg viewBox="0 0 530.1252724459221 97.80810000000001" height="97.80810000000001" width="530.1252724459221"><g id="textblocktransform"><svg viewBox="0 0 530.1252724459221 97.80810000000001" height="97.80810000000001" width="530.1252724459221" id="textblock"><g><svg viewBox="0 0 530.1252724459221 97.80810000000001" height="97.80810000000001" width="530.1252724459221"><g><svg><g></g><g></g></svg></g><g><svg><g></g><g><svg></svg></g></svg></g><g id="text-0"><svg viewBox="0 0 530.1252724459221 97.80810000000001" height="97.80810000000001" width="530.1252724459221"><g><svg xmlns="http://www.w3.org/2000/svg" xmlns:xlink="http://www.w3.org/1999/xlink" version="1.1" x="0" y="0" viewBox="0 5.623921333325057 99.751 83.50107866667494" enable-background="new 0 0 100 100" xml:space="preserve" height="97.80810000000001" width="116.84227244592202" class="icon-dxe-0" data-fill-palette-color="accent" id="dxe-0"><path fill="#229799" d="M69.101 28.048C69.206 27.069 69.145 26.396 69.224 25.965 72.977 26.293 76.294 23.509 76.621 19.76 76.947 16.007 74.163 12.689 70.411 12.361 67.039 12.066 63.724 14.56 63.459 17.596A1.424 1.424 0 1 0 66.298 17.844C66.424 16.405 68.409 15.047 70.163 15.2A3.98 3.98 0 0 1 73.779 19.51 3.98 3.98 0 0 1 69.47 23.124C67.278 22.932 66.739 25.331 66.274 27.769L66.278 27.767z" data-fill-palette-color="accent"></path><path fill="#229799" d="M33.862 27.959C33.659 26.888 33.366 26.211 33.305 25.749 36.978 24.911 39.282 21.245 38.444 17.575 37.604 13.903 33.937 11.598 30.265 12.436 26.964 13.189 24.574 16.579 25.252 19.55A1.424 1.424 0 1 0 28.031 18.916C27.71 17.508 29.183 15.607 30.9 15.215A3.98 3.98 0 0 1 35.663 18.209 3.98 3.98 0 0 1 32.669 22.97C30.636 23.434 30.73 25.658 31.005 27.986L33.52 27.768z" data-fill-palette-color="accent"></path><polygon fill="#229799" points="86.621,37.945 81.937,54.463 70.566,50.045 70.566,85.893 57.123,85.893 76.553,89.125   82.162,55.413 92.329,61.445 99.751,45.731 " data-fill-palette-color="accent"></polygon><polygon fill="#229799" points="28.585,50.047 17.216,54.464 12.59,38.157 0,45.314 7.135,61.162 17.409,55.316 22.403,89.125   44.27,85.894 28.585,85.894 " data-fill-palette-color="accent"></polygon><path fill="#229799" d="M69.58 85.024V48.717L81.287 53.265 86.324 35.502 69.582 29.002 66.551 28.888 64.098 30.267 55.015 24.756C53.929 24.102 52.566 23.693 51.129 23.52 51.21 21.772 50.878 20.736 50.888 20.11 54.879 19.799 57.869 16.304 57.558 12.317 57.245 8.327 53.749 5.336 49.76 5.646 46.174 5.925 43.136 9.117 43.387 12.344A1.513 1.513 0 1 0 46.405 12.109C46.286 10.579 48.13 8.81 49.995 8.665A4.23 4.23 0 0 1 54.536 12.551 4.23 4.23 0 0 1 50.651 17.09C48.025 17.294 48.171 20.579 48.088 23.512 46.637 23.681 45.255 24.094 44.159 24.758L35.389 30.079 33.27 28.888 29.592 29.002 12.846 35.503 17.884 53.266 29.59 48.718V85.026zM45.726 27.349C47.703 26.158 51.472 26.162 53.445 27.348L61.066 31.972 49.907 38.245 38.416 31.785z" data-fill-palette-color="accent"></path></svg></g><g transform="matrix(1,0,0,1,134.60527244592203,13.630402128883787)"><svg width="395.52" viewBox="2.55 -36.5 260.68 46.5" height="70.54729574223244" data-palette-color="#427898"><path d="M13.35 0.35L13.35 0.35Q8.8 0.35 5.9-1.35 3-3.05 3-6.9L3-6.9Q3-7.3 3.03-7.63 3.05-7.95 3.1-8.15L3.1-8.15Q3.3-9.55 3.95-11.6 4.6-13.65 5.45-15.98 6.3-18.3 7.1-20.55 7.9-22.8 8.45-24.68 9-26.55 9-27.7L9-27.7Q9-29 8.15-29L8.15-29Q7.2-29 5.8-27.58 4.4-26.15 2.85-23.6L2.85-23.6 2.55-23.75Q2.55-27.05 3.85-29.45 5.15-31.85 7.3-33.43 9.45-35 12.1-35.75 14.75-36.5 17.45-36.5L17.45-36.5Q20.8-36.5 23.75-35.43 26.7-34.35 28.58-32.35 30.45-30.35 30.45-27.45L30.45-27.45Q30.45-22.25 24.1-19.35L24.1-19.35Q27.85-18.5 29.6-16.5 31.35-14.5 31.35-12.05L31.35-12.05Q31.35-9.9 30.08-7.73 28.8-5.55 26.45-3.73 24.1-1.9 20.78-0.78 17.45 0.35 13.35 0.35ZM15.3-20.85L15.3-20.85Q17.6-20.8 19.33-21.58 21.05-22.35 22.03-23.58 23-24.8 23-26.1L23-26.1Q23-27.8 21.2-29.13 19.4-30.45 15.55-30.45L15.55-30.45Q15.75-29.5 15.83-28.55 15.9-27.6 15.9-26.7L15.9-26.7Q15.9-25.25 15.73-23.8 15.55-22.35 15.3-20.85ZM14.75-5.75L14.75-5.75Q16.9-5.75 18.55-6.63 20.2-7.5 21.15-8.88 22.1-10.25 22.1-11.7L22.1-11.7Q22.1-13.7 20.2-15.4 18.3-17.1 14.25-17.5L14.25-17.5Q14.05-15.95 13.43-14.2 12.8-12.45 12.25-10.85 11.7-9.25 11.7-8.05L11.7-8.05Q11.7-7 12.35-6.38 13-5.75 14.75-5.75ZM52.6 0.25L52.6 0.25Q50.85 0.25 49.55-0.9 48.25-2.05 48.25-4.65L48.25-4.65Q48.25-4.9 48.25-5.15 48.25-5.4 48.3-5.65L48.3-5.65Q46.8-2.65 44.92-1.23 43.05 0.2 41.15 0.2L41.15 0.2Q39.4 0.2 37.85-1.03 36.3-2.25 35.35-4.65 34.4-7.05 34.4-10.45L34.4-10.45Q34.4-13.95 35.37-16.7 36.35-19.45 37.95-21.35 39.55-23.25 41.45-24.23 43.35-25.2 45.15-25.2L45.15-25.2Q47.15-25.2 48.75-23.98 50.35-22.75 50.95-20.1L50.95-20.1Q51.1-20.95 51.17-21.65 51.25-22.35 51.25-22.6L51.25-22.6Q51.3-23.95 52.62-24.6 53.95-25.25 55.55-25.25L55.55-25.25Q56.95-25.25 58.2-24.7 59.45-24.15 59.9-22.85L59.9-22.85 60-22.55Q59.4-21.2 58.8-19.3 58.2-17.4 57.7-15.33 57.2-13.25 56.9-11.28 56.6-9.3 56.6-7.8L56.6-7.8Q56.6-6.15 56.95-5.53 57.3-4.9 57.8-4.9L57.8-4.9Q58.65-4.9 59.35-6.1L59.35-6.1 59.75-5.9Q59.75-4.2 58.65-2.8 57.55-1.4 55.9-0.58 54.25 0.25 52.6 0.25ZM44.45-6.1L44.45-6.1Q45.75-6.1 47.32-8.43 48.9-10.75 50.05-15.1L50.05-15.1Q50.15-15.55 50.25-15.98 50.35-16.4 50.4-16.8L50.4-16.8Q49.6-18.65 48.72-19.43 47.85-20.2 47-20.2L47-20.2Q45.75-20.2 44.67-18.88 43.6-17.55 42.92-15.55 42.25-13.55 42.25-11.55L42.25-11.55Q42.25-8.8 42.87-7.45 43.5-6.1 44.45-6.1ZM68.45 0.2L68.45 0.2Q66.65 0.2 65.25-1.28 63.85-2.75 63.85-5.45L63.85-5.45Q63.85-6.75 64.15-8.4 64.45-10.05 64.84-11.78 65.25-13.5 65.55-15.03 65.84-16.55 65.84-17.55L65.84-17.55Q65.84-18.6 65.47-19.23 65.09-19.85 64.5-19.85L64.5-19.85Q63.55-19.85 62.55-18.55L62.55-18.55 62.25-18.75Q62.2-19.55 62.6-20.65 63-21.75 63.85-22.78 64.7-23.8 66.02-24.5 67.34-25.2 69.15-25.2L69.15-25.2Q71.8-25.2 73-23.68 74.2-22.15 74.2-20L74.2-20Q74.2-19.65 74.17-19.28 74.15-18.9 74.09-18.55L74.09-18.55Q75.9-21.8 77.87-23.53 79.84-25.25 81.55-25.25L81.55-25.25Q83.15-25.25 83.9-24 84.65-22.75 84.65-21L84.65-21Q84.65-19.4 84.02-17.75 83.4-16.1 82.17-15.03 80.95-13.95 79.2-14L79.2-14 79-14.1Q78.95-15.4 78.15-16.15 77.34-16.9 76.34-16.9L76.34-16.9Q75-16.9 73.82-15.55 72.65-14.2 72.65-11.65L72.65-11.65Q72.65-10.1 73-8.3 73.34-6.5 73.34-5.25L73.34-5.25Q73.34-3.75 72.65-2.5 71.95-1.25 70.84-0.53 69.75 0.2 68.45 0.2ZM93.24 0.2L93.24 0.2Q91.64 0.2 90.22-0.53 88.79-1.25 87.92-2.8 87.04-4.35 87.04-6.75L87.04-6.75Q87.04-8.05 87.29-10.15 87.54-12.25 87.97-14.75 88.39-17.25 88.84-19.75L88.84-19.75Q87.84-19.7 86.92-19.55 85.99-19.4 85.09-19.2L85.09-19.2 84.99-19.55Q85.99-20.75 87.09-21.6 88.19-22.45 89.39-23L89.39-23Q90.04-26.3 90.49-28.73 90.94-31.15 90.94-31.6L90.94-31.6Q90.94-32.45 92.27-33 93.59-33.55 95.24-33.55L95.24-33.55Q96.69-33.55 97.97-33 99.24-32.45 99.69-31.15L99.69-31.15Q99.39-30.85 98.84-28.93 98.29-27 97.69-24.25L97.69-24.25Q98.64-24.2 99.64-24.15 100.64-24.1 101.69-24L101.69-24Q101.79-23.7 101.84-23.35 101.89-23 101.89-22.6L101.89-22.6Q101.89-21.85 101.67-20.98 101.44-20.1 101.14-19.4L101.14-19.4Q99.94-19.5 98.89-19.63 97.84-19.75 96.84-19.8L96.84-19.8Q96.44-17.65 96.12-15.5 95.79-13.35 95.62-11.6 95.44-9.85 95.44-8.85L95.44-8.85Q95.44-6.75 96.22-6.05 96.99-5.35 98.09-5.35L98.09-5.35Q99.09-5.35 99.89-5.75 100.69-6.15 101.04-6.7L101.04-6.7 101.54-6.55Q101.24-4.5 99.94-2.98 98.64-1.45 96.84-0.63 95.04 0.2 93.24 0.2ZM114.54 0.35L114.54 0.35Q110.89 0.35 108.49-1.13 106.09-2.6 104.89-5.03 103.69-7.45 103.69-10.25L103.69-10.25Q103.69-12.9 104.72-15.58 105.74-18.25 107.72-20.45 109.69-22.65 112.52-24 115.34-25.35 118.89-25.35L118.89-25.35Q123.29-25.35 125.32-23.38 127.34-21.4 127.34-18.6L127.34-18.6Q127.34-16.2 126.07-14.18 124.79-12.15 122.69-10.93 120.59-9.7 118.09-9.7L118.09-9.7Q116.79-9.7 115.44-10.1 114.09-10.5 112.79-11.35L112.79-11.35Q113.04-8.25 114.59-6.85 116.14-5.45 118.29-5.45L118.29-5.45Q119.79-5.45 121.29-6.03 122.79-6.6 124.07-7.53 125.34-8.45 126.04-9.5L126.04-9.5 126.39-9.25Q126.39-6.65 125.32-4.83 124.24-3 122.49-1.85 120.74-0.7 118.67-0.18 116.59 0.35 114.54 0.35ZM115.69-13.15L115.69-13.15Q117.29-13.15 118.29-14.08 119.29-15 119.79-16.25 120.29-17.5 120.29-18.45L120.29-18.45Q120.29-19.6 119.64-20.38 118.99-21.15 117.84-21.15L117.84-21.15Q116.94-21.15 115.87-20.5 114.79-19.85 113.94-18.28 113.09-16.7 112.84-13.9L112.84-13.9Q114.44-13.15 115.69-13.15ZM135.69 0.2L135.69 0.2Q133.89 0.2 132.49-1.28 131.09-2.75 131.09-5.45L131.09-5.45Q131.09-6.75 131.39-8.4 131.69-10.05 132.09-11.78 132.49-13.5 132.79-15.03 133.09-16.55 133.09-17.55L133.09-17.55Q133.09-18.6 132.71-19.23 132.34-19.85 131.74-19.85L131.74-19.85Q130.79-19.85 129.79-18.55L129.79-18.55 129.49-18.75Q129.44-19.55 129.84-20.65 130.24-21.75 131.09-22.78 131.94-23.8 133.26-24.5 134.59-25.2 136.39-25.2L136.39-25.2Q139.04-25.2 140.24-23.68 141.44-22.15 141.44-20L141.44-20Q141.44-19.65 141.41-19.28 141.39-18.9 141.34-18.55L141.34-18.55Q143.14-21.8 145.11-23.53 147.09-25.25 148.79-25.25L148.79-25.25Q150.39-25.25 151.14-24 151.89-22.75 151.89-21L151.89-21Q151.89-19.4 151.26-17.75 150.64-16.1 149.41-15.03 148.19-13.95 146.44-14L146.44-14 146.24-14.1Q146.19-15.4 145.39-16.15 144.59-16.9 143.59-16.9L143.59-16.9Q142.24-16.9 141.06-15.55 139.89-14.2 139.89-11.65L139.89-11.65Q139.89-10.1 140.24-8.3 140.59-6.5 140.59-5.25L140.59-5.25Q140.59-3.75 139.89-2.5 139.19-1.25 138.09-0.53 136.99 0.2 135.69 0.2ZM162.04 0.3L162.04 0.3Q158.69 0.3 156.51-0.85 154.34-2 153.29-3.8 152.24-5.6 152.24-7.5L152.24-7.5Q152.24-9.35 153.14-11.03 154.04-12.7 155.71-13.8 157.39-14.9 159.69-14.9L159.69-14.9Q159.64-14.45 159.64-14.08 159.64-13.7 159.64-13.7L159.64-13.7Q159.64-10.35 160.29-8.43 160.94-6.5 161.94-5.68 162.94-4.85 163.99-4.85L163.99-4.85Q165.59-4.85 166.84-6.13 168.09-7.4 168.09-9.1L168.09-9.1Q168.09-11 166.46-12.45 164.84-13.9 162.34-15.65L162.34-15.65Q160.94-16.7 159.36-18.03 157.79-19.35 156.69-21.18 155.59-23 155.59-25.5L155.59-25.5Q155.59-28.1 156.81-30.1 158.04-32.1 160.06-33.48 162.09-34.85 164.51-35.58 166.94-36.3 169.34-36.3L169.34-36.3Q172.29-36.3 174.19-35.35 176.09-34.4 177.04-32.9 177.99-31.4 177.99-29.8L177.99-29.8Q177.99-28.3 177.16-26.93 176.34-25.55 174.74-24.7 173.14-23.85 170.79-23.85L170.79-23.85Q170.94-24.55 170.99-25.13 171.04-25.7 171.04-26.15L171.04-26.15Q171.04-28.65 169.96-29.73 168.89-30.8 167.59-30.8L167.59-30.8Q166.34-30.8 165.19-29.88 164.04-28.95 164.04-26.9L164.04-26.9Q164.04-25.15 164.96-23.9 165.89-22.65 167.36-21.7 168.84-20.75 170.49-19.85L170.49-19.85Q172.19-18.95 173.76-17.88 175.34-16.8 176.39-15.35 177.44-13.9 177.44-11.7L177.44-11.7Q177.44-9.4 176.19-7.23 174.94-5.05 172.79-3.38 170.64-1.7 167.86-0.7 165.09 0.3 162.04 0.3ZM187.63 0.2L187.63 0.2Q186.03 0.2 184.61-0.53 183.18-1.25 182.31-2.8 181.43-4.35 181.43-6.75L181.43-6.75Q181.43-8.05 181.68-10.15 181.93-12.25 182.36-14.75 182.78-17.25 183.23-19.75L183.23-19.75Q182.23-19.7 181.31-19.55 180.38-19.4 179.48-19.2L179.48-19.2 179.38-19.55Q180.38-20.75 181.48-21.6 182.58-22.45 183.78-23L183.78-23Q184.43-26.3 184.88-28.73 185.33-31.15 185.33-31.6L185.33-31.6Q185.33-32.45 186.66-33 187.98-33.55 189.63-33.55L189.63-33.55Q191.08-33.55 192.36-33 193.63-32.45 194.08-31.15L194.08-31.15Q193.78-30.85 193.23-28.93 192.68-27 192.08-24.25L192.08-24.25Q193.03-24.2 194.03-24.15 195.03-24.1 196.08-24L196.08-24Q196.18-23.7 196.23-23.35 196.28-23 196.28-22.6L196.28-22.6Q196.28-21.85 196.06-20.98 195.83-20.1 195.53-19.4L195.53-19.4Q194.33-19.5 193.28-19.63 192.23-19.75 191.23-19.8L191.23-19.8Q190.83-17.65 190.51-15.5 190.18-13.35 190.01-11.6 189.83-9.85 189.83-8.85L189.83-8.85Q189.83-6.75 190.61-6.05 191.38-5.35 192.48-5.35L192.48-5.35Q193.48-5.35 194.28-5.75 195.08-6.15 195.43-6.7L195.43-6.7 195.93-6.55Q195.63-4.5 194.33-2.98 193.03-1.45 191.23-0.63 189.43 0.2 187.63 0.2ZM208.53 10L208.53 10Q206.03 10 204.51 8.47 202.98 6.95 202.98 4.35L202.98 4.35Q202.98 3 203.46 1.38 203.93-0.25 205.03-2.05L205.03-2.05Q202.58-2.2 201.01-3.7 199.43-5.2 199.43-8.25L199.43-8.25Q199.43-10.05 199.91-12.13 200.38-14.2 200.83-16.03 201.28-17.85 201.28-18.85L201.28-18.85Q201.28-19.6 200.98-19.93 200.68-20.25 200.28-20.25L200.28-20.25Q199.88-20.25 199.41-19.93 198.93-19.6 198.68-18.95L198.68-18.95 197.83-19.85Q198.13-21.4 199.13-22.6 200.13-23.8 201.58-24.5 203.03-25.2 204.58-25.2L204.58-25.2Q206.33-25.2 207.63-24.08 208.93-22.95 208.93-20L208.93-20Q208.93-18.15 208.48-16.03 208.03-13.9 207.58-12.03 207.13-10.15 207.13-9.05L207.13-9.05Q207.13-8.05 207.56-7.58 207.98-7.1 208.53-7.1L208.53-7.1Q209.23-7.1 210.13-7.88 211.03-8.65 211.83-10.45 212.63-12.25 212.88-15.3L212.88-15.3Q212.98-16.25 213.03-17.73 213.08-19.2 213.13-20.48 213.18-21.75 213.18-22.05L213.18-22.05Q213.18-23.85 214.51-24.58 215.83-25.3 217.43-25.3L217.43-25.3Q218.83-25.3 220.08-24.75 221.33-24.2 221.78-22.9L221.78-22.9 221.88-22.6Q221.43-22.2 221.11-19.9 220.78-17.6 220.33-13.75L220.33-13.75Q220.03-11.25 219.58-8.1 219.13-4.95 218.36-1.78 217.58 1.4 216.31 4.08 215.03 6.75 213.13 8.38 211.23 10 208.53 10ZM207.33 4.25L207.33 4.25Q208.88 4.25 210.11 1.43 211.33-1.4 212.03-6.6L212.03-6.6Q208.83-2.5 207.63-0.15 206.43 2.2 206.43 3.25L206.43 3.25Q206.43 4.25 207.33 4.25ZM230.08 0.2L230.08 0.2Q228.73 0.2 227.45-0.48 226.18-1.15 225.38-2.65 224.58-4.15 224.58-6.5L224.58-6.5Q224.58-8.6 225.15-11.43 225.73-14.25 226.45-17.3 227.18-20.35 227.73-23.25 228.28-26.15 228.23-28.4L228.23-28.4Q228.23-30.55 227.73-31.45L227.73-31.45 227.68-31.6Q228.23-33.2 229.63-34.1 231.03-35 232.58-35L232.58-35Q234.33-35 235.7-33.68 237.08-32.35 237.08-29.25L237.08-29.25Q237.08-27.6 236.68-25.33 236.28-23.05 235.73-20.48 235.18-17.9 234.6-15.4 234.03-12.9 233.63-10.8 233.23-8.7 233.23-7.35L233.23-7.35Q233.23-5.95 233.63-5.43 234.03-4.9 234.53-4.9L234.53-4.9Q235.08-4.9 235.58-5.33 236.08-5.75 236.23-6.1L236.23-6.1 236.63-6Q236.58-4.2 235.6-2.8 234.63-1.4 233.15-0.6 231.68 0.2 230.08 0.2ZM250.43 0.35L250.43 0.35Q246.78 0.35 244.38-1.13 241.98-2.6 240.78-5.03 239.58-7.45 239.58-10.25L239.58-10.25Q239.58-12.9 240.6-15.58 241.63-18.25 243.6-20.45 245.58-22.65 248.4-24 251.23-25.35 254.78-25.35L254.78-25.35Q259.18-25.35 261.2-23.38 263.23-21.4 263.23-18.6L263.23-18.6Q263.23-16.2 261.95-14.18 260.68-12.15 258.58-10.93 256.48-9.7 253.98-9.7L253.98-9.7Q252.68-9.7 251.33-10.1 249.98-10.5 248.68-11.35L248.68-11.35Q248.93-8.25 250.48-6.85 252.03-5.45 254.18-5.45L254.18-5.45Q255.68-5.45 257.18-6.03 258.68-6.6 259.95-7.53 261.23-8.45 261.93-9.5L261.93-9.5 262.28-9.25Q262.28-6.65 261.2-4.83 260.13-3 258.38-1.85 256.63-0.7 254.55-0.18 252.48 0.35 250.43 0.35ZM251.58-13.15L251.58-13.15Q253.18-13.15 254.18-14.08 255.18-15 255.68-16.25 256.18-17.5 256.18-18.45L256.18-18.45Q256.18-19.6 255.53-20.38 254.88-21.15 253.73-21.15L253.73-21.15Q252.83-21.15 251.75-20.5 250.68-19.85 249.83-18.28 248.98-16.7 248.73-13.9L248.73-13.9Q250.33-13.15 251.58-13.15Z" opacity="1" transform="matrix(1,0,0,1,0,0)" fill="#427898" class="wordmark-text-0" data-fill-palette-color="primary"></path></svg></g></svg></g></svg></g></svg></g></svg></g></svg></g><defs></defs></svg><rect width="395.52" height="72.97343047523971" fill="none" stroke="none" visibility="hidden"></rect></g></svg></g></svg>